<?xml version="1.0" standalone="no"?>
<svg xmlns="http://www.w3.org/2000/svg" viewBox="0 0 265.153 36" width="265.153" height="36"><g fill="#5c2dcd" color="#5c2dcd" transform="translate(0 3.9999999999999982) scale(0.2800001)"><svg width="100.0" height="100.0" x="0.0" y="0.0" viewBox="0 0 100 100"><g><path d="M36.202,12.527c-12.895,0-23.384,10.492-23.384,23.388c0,0.302,0.245,0.547,0.546,0.547c0.302,0,0.547-0.245,0.547-0.547   c0-12.293,10-22.295,22.291-22.295c0.302,0,0.546-0.245,0.546-0.547C36.749,12.772,36.504,12.527,36.202,12.527z"></path><path d="M98.82,92.337L79.354,72.872c-1.142-1.143-2.754-1.503-4.211-1.117L63.547,60.158c-0.211-0.212-0.456-0.371-0.717-0.478   c5.647-6.318,9.09-14.648,9.09-23.769c0-19.693-16.023-35.714-35.718-35.714c-19.692,0-35.711,16.021-35.711,35.714   c0,19.692,16.02,35.713,35.711,35.713c9.124,0,17.455-3.443,23.775-9.092c0.106,0.261,0.266,0.505,0.478,0.717l11.598,11.597   c-0.384,1.456-0.023,3.067,1.118,4.209l19.465,19.466c0.854,0.854,1.974,1.281,3.092,1.281c1.12,0,2.24-0.427,3.093-1.281   C100.528,96.814,100.528,94.045,98.82,92.337z M36.202,68.345c-17.883,0-32.432-14.55-32.432-32.433   c0-17.884,14.549-32.434,32.432-32.434c17.886,0,32.438,14.55,32.438,32.434C68.64,53.795,54.088,68.345,36.202,68.345z"></path></g></svg></g><path fill="#1b8fb8" fill-rule="nonzero" d="M13.58 8.71L13.58 8.71L13.58 10.01Q13.58 14.30 11.96 16.25Q10.34 18.19 6.77 18.19Q3.19 18.19 1.60 16.25Q0 14.30 0 9.94L0 9.94L0 8.69Q0 4.70 1.62 2.76Q3.24 0.82 6.76 0.82Q10.27 0.82 11.93 2.78Q13.58 4.75 13.58 8.71ZM10.25 9.94L10.25 9.94L10.25 9.05Q10.25 6.74 9.67 5.38L9.67 5.38Q9 3.79 6.79 3.79L6.79 3.79Q4.56 3.79 3.89 5.38L3.89 5.38Q3.34 6.67 3.34 9.05L3.34 9.05L3.34 9.94Q3.34 13.03 4.20 14.11L4.20 14.11Q4.54 14.57 5.20 14.89Q5.86 15.22 6.78 15.22Q7.70 15.22 8.35 14.90Q9 14.59 9.36 14.14Q9.72 13.68 9.91 12.94L9.91 12.94Q10.25 11.76 10.25 9.94ZM22.13 18.07L22.13 18.07L19.42 18.05Q17.62 18.05 16.69 16.99Q15.77 15.94 15.77 14.47L15.77 14.47L15.77 0L18.89 0L18.89 6.05L22.61 4.32Q24.74 4.32 25.75 5.47L25.75 5.47Q26.64 6.50 26.86 8.81L26.86 8.81Q26.93 9.77 26.93 11.18L26.93 11.18Q26.93 18.07 22.13 18.07ZM19.68 15.38L19.68 15.38L21.22 15.38Q23.81 15.38 23.81 11.18L23.81 11.18Q23.81 9.05 23.41 8.21Q23.02 7.37 21.70 7.37L21.70 7.37L18.89 8.88L18.89 14.28Q18.89 15.24 19.68 15.38ZM39.12 14.26L39.12 14.26L39.12 14.62Q38.98 16.42 37.60 17.33Q36.22 18.24 34.15 18.24L34.15 18.24Q31.10 18.24 29.88 17.14L29.88 17.14Q28.75 16.13 28.75 14.16L28.75 14.16L28.75 13.87L31.58 13.87Q31.58 14.98 32.16 15.38Q32.74 15.79 34.15 15.79L34.15 15.79Q36.07 15.79 36.07 14.40L36.07 14.40Q36.07 13.25 35.40 12.86L35.40 12.86Q35.09 12.67 34.61 12.58L34.61 12.58L32.18 12.17Q29.02 11.66 29.02 8.21L29.02 8.21Q29.02 6.29 30.42 5.22Q31.82 4.15 33.98 4.15L33.98 4.15Q38.90 4.15 38.90 8.40L38.90 8.40L38.90 8.71L36.19 8.71Q36.14 7.58 35.59 7.18Q35.04 6.77 34.04 6.77Q33.05 6.77 32.54 7.16Q32.04 7.56 32.04 8.04L32.04 8.04Q32.04 9.41 33.14 9.60L33.14 9.60L36.05 10.13Q39.12 10.70 39.12 14.26ZM52.01 11.93L52.01 11.93L44.02 11.93Q44.02 13.80 44.60 14.66Q45.19 15.53 46.97 15.53L46.97 15.53Q48.12 15.53 48.67 14.80Q49.22 14.06 49.22 13.39L49.22 13.39L52.03 13.39Q52.03 15.96 50.65 17.16Q49.27 18.36 47.00 18.36Q44.74 18.36 43.49 17.71L43.49 17.71Q40.92 16.39 40.92 10.70L40.92 10.70Q40.92 7.32 42.38 5.75Q43.85 4.18 46.85 4.18L46.85 4.18Q52.06 4.18 52.06 9.96L52.06 9.96Q52.06 10.58 52.01 11.93ZM44.09 9.79L44.09 9.79L49.22 9.79Q49.22 8.21 48.62 7.49Q48.02 6.77 46.79 6.77Q45.55 6.77 44.82 7.50Q44.09 8.23 44.09 9.79ZM62.16 4.39L62.16 4.39L61.30 7.46Q60.94 7.32 60.48 7.32L60.48 7.32Q59.28 7.32 57.53 8.35L57.53 8.35L57.53 18.05L54.41 18.05L54.41 4.34L56.74 4.34L57.46 5.54L60.77 4.18Q61.01 4.15 61.42 4.15Q61.82 4.15 62.16 4.39ZM70.94 4.34L74.23 4.34L69.65 18.05L67.20 18.05L62.59 4.34L65.88 4.34L68.42 13.27L70.94 4.34ZM85.51 4.25L85.51 18.05L83.42 18.05L82.46 16.39L79.13 18.19Q76.34 18.19 75.38 16.18L75.38 16.18Q74.90 15.19 74.72 14.05Q74.54 12.91 74.54 11.68Q74.54 10.44 74.57 9.85Q74.59 9.26 74.69 8.48Q74.78 7.70 74.96 7.18Q75.14 6.65 75.48 6.08Q75.82 5.52 76.30 5.18L76.30 5.18Q77.38 4.44 79.10 4.44L79.10 4.44L82.39 4.44L85.51 4.25ZM80.02 14.90L82.39 13.68L82.39 7.25L80.02 7.25Q78.70 7.25 78.18 8.26Q77.66 9.26 77.66 11.27Q77.66 13.27 78.16 14.09Q78.65 14.90 80.02 14.90L80.02 14.90ZM98.86 0L98.86 18.05L96.77 18.05L95.81 16.39L92.47 18.19Q89.69 18.19 88.73 16.18L88.73 16.18Q88.25 15.19 88.07 14.05Q87.89 12.91 87.89 11.68Q87.89 10.44 87.91 9.85Q87.94 9.26 88.03 8.48Q88.13 7.70 88.31 7.18Q88.49 6.65 88.82 6.08Q89.16 5.52 89.64 5.18L89.64 5.18Q90.72 4.44 92.45 4.44L92.45 4.44L95.74 4.44L95.74 0L98.86 0ZM93.36 14.90L95.74 13.68L95.74 7.25L93.36 7.25Q92.04 7.25 91.52 8.26Q91.01 9.26 91.01 11.27Q91.01 13.27 91.50 14.09Q91.99 14.90 93.36 14.90L93.36 14.90ZM109.78 11.86L109.78 11.86L109.78 10.61Q109.78 8.83 109.26 7.90Q108.74 6.96 107.11 6.96L107.11 6.96Q104.47 6.96 104.47 10.51L104.47 10.51L104.47 11.76Q104.47 15.58 107.11 15.58L107.11 15.58Q108.82 15.58 109.34 14.30L109.34 14.30Q109.78 13.30 109.78 11.86ZM112.90 11.14L112.90 11.14Q112.90 15.58 111.22 17.09L111.22 17.09Q109.80 18.38 107.11 18.38L107.11 18.38Q103.68 18.38 102.48 16.37L102.48 16.37Q101.35 14.52 101.35 11.14L101.35 11.14Q101.35 7.97 102.48 6.17L102.48 6.17Q103.73 4.15 107.03 4.15Q110.33 4.15 111.61 5.92Q112.90 7.68 112.90 11.14ZM122.66 4.39L122.66 4.39L121.80 7.46Q121.44 7.32 120.98 7.32L120.98 7.32Q119.78 7.32 118.03 8.35L118.03 8.35L118.03 18.05L114.91 18.05L114.91 4.34L117.24 4.34L117.96 5.54L121.27 4.18Q121.51 4.15 121.92 4.15Q122.33 4.15 122.66 4.39ZM143.45 9.43L143.45 9.43L143.47 11.28Q143.38 13.03 143.04 14.23Q142.70 15.43 141.72 16.42L141.72 16.42Q140.09 18.05 136.97 18.05L136.97 18.05Q133.30 18.05 131.93 17.08Q130.56 16.10 130.56 13.56L130.56 13.56L130.56 0.96L137.21 0.96Q140.09 0.96 141.72 2.59L141.72 2.59Q143.04 3.91 143.28 5.81L143.28 5.81Q143.45 7.15 143.45 9.43ZM139.39 14.02Q139.85 13.46 139.98 12.49Q140.11 11.52 140.11 9.46Q140.11 7.39 139.98 6.47Q139.85 5.54 139.39 4.99L139.39 4.99Q138.53 3.94 136.90 3.94L136.90 3.94L133.90 3.94L133.90 13.39Q133.90 14.35 134.54 14.71Q135.19 15.07 136.86 15.07Q138.53 15.07 139.39 14.02L139.39 14.02ZM156.41 11.93L156.41 11.93L148.42 11.93Q148.42 13.80 149.00 14.66Q149.59 15.53 151.37 15.53L151.37 15.53Q152.52 15.53 153.07 14.80Q153.62 14.06 153.62 13.39L153.62 13.39L156.43 13.39Q156.43 15.96 155.05 17.16Q153.67 18.36 151.40 18.36Q149.14 18.36 147.89 17.71L147.89 17.71Q145.32 16.39 145.32 10.70L145.32 10.70Q145.32 7.32 146.78 5.75Q148.25 4.18 151.25 4.18L151.25 4.18Q156.46 4.18 156.46 9.96L156.46 9.96Q156.46 10.58 156.41 11.93ZM148.49 9.79L148.49 9.79L153.62 9.79Q153.62 8.21 153.02 7.49Q152.42 6.77 151.19 6.77Q149.95 6.77 149.22 7.50Q148.49 8.23 148.49 9.79ZM162.29 0L162.29 18.05L159.17 18.07L159.17 0L162.29 0ZM181.44 0.96L184.78 0.96L184.78 16.32Q184.78 17.11 184.30 17.68Q183.82 18.24 183.17 18.24L183.17 18.24Q181.51 18.24 180.46 16.32L180.46 16.32L174.55 7.08L174.55 18.05L171.22 18.05L171.22 0.96L174.43 0.96L181.44 12.14L181.44 0.96ZM195.41 11.86L195.41 11.86L195.41 10.61Q195.41 8.83 194.89 7.90Q194.38 6.96 192.74 6.96L192.74 6.96Q190.10 6.96 190.10 10.51L190.10 10.51L190.10 11.76Q190.10 15.58 192.74 15.58L192.74 15.58Q194.45 15.58 194.98 14.30L194.98 14.30Q195.41 13.30 195.41 11.86ZM198.53 11.14L198.53 11.14Q198.53 15.58 196.85 17.09L196.85 17.09Q195.43 18.38 192.74 18.38L192.74 18.38Q189.31 18.38 188.11 16.37L188.11 16.37Q186.98 14.52 186.98 11.14L186.98 11.14Q186.98 7.97 188.11 6.17L188.11 6.17Q189.36 4.15 192.66 4.15Q195.96 4.15 197.24 5.92Q198.53 7.68 198.53 11.14ZM208.30 4.39L208.30 4.39L207.43 7.46Q207.07 7.32 206.62 7.32L206.62 7.32Q205.42 7.32 203.66 8.35L203.66 8.35L203.66 18.05L200.54 18.05L200.54 4.34L202.87 4.34L203.59 5.54L206.90 4.18Q207.14 4.15 207.55 4.15Q207.96 4.15 208.30 4.39ZM216.24 15.41L216.24 18.05L214.30 18.05Q212.52 18.05 211.60 16.99Q210.67 15.94 210.67 14.47L210.67 14.47L210.67 7.27L209.35 7.27L209.35 4.90L210.67 4.90L210.67 2.21L213.79 2.21L213.79 4.90L216.00 4.90L216.00 7.27L213.79 7.27L213.79 14.28Q213.79 15.41 214.87 15.41L214.87 15.41L216.24 15.41ZM229.10 11.93L229.10 11.93L221.11 11.93Q221.11 13.80 221.70 14.66Q222.29 15.53 224.06 15.53L224.06 15.53Q225.22 15.53 225.77 14.80Q226.32 14.06 226.32 13.39L226.32 13.39L229.13 13.39Q229.13 15.96 227.75 17.16Q226.37 18.36 224.10 18.36Q221.83 18.36 220.58 17.71L220.58 17.71Q218.02 16.39 218.02 10.70L218.02 10.70Q218.02 7.32 219.48 5.75Q220.94 4.18 223.94 4.18L223.94 4.18Q229.15 4.18 229.15 9.96L229.15 9.96Q229.15 10.58 229.10 11.93ZM221.18 9.79L221.18 9.79L226.32 9.79Q226.32 8.21 225.72 7.49Q225.12 6.77 223.88 6.77Q222.65 6.77 221.92 7.50Q221.18 8.23 221.18 9.79Z" transform="translate(36, 8.808)"></path></svg>