<?xml version="1.0" standalone="no"?>
<svg xmlns="http://www.w3.org/2000/svg" viewBox="0 0 157.44 36" width="157.44" height="36"><g fill="#ff5576" color="#ff5576" transform="translate(0 4.583333333333332) scale(0.5833334)"><svg width="48.0" height="46.0" x="0.0" y="0.0" viewBox="0 0 48 46"><path fill="currentColor" fill-rule="evenodd" d="M17.265 0L0 9.915v19.834l17.265 9.916 9.094-5.223 6.159 10.642L48 18.326H34.53V9.915L17.265 0zm4.969 21.326h20.563l-10.28 17.77-10.283-17.77z"></path></svg></g><path fill="#0b0cac" fill-rule="nonzero" d="M2.81 16.97L0.10 16.97Q0 16.97 0 16.85L0 16.85L0.05 0.36Q0.05 0.26 0.14 0.26L0.14 0.26L3.07 0.26Q3.17 0.26 3.24 0.36L3.24 0.36L5.42 3.53L7.61 0.36Q7.68 0.26 7.78 0.26L7.78 0.26L10.73 0.26Q10.82 0.26 10.82 0.36L10.82 0.36L10.87 16.85Q10.87 16.97 10.78 16.97L10.78 16.97L8.06 16.97Q7.97 16.97 7.97 16.85L7.97 16.85L7.94 4.61L5.42 8.26L2.93 4.61L2.90 16.85Q2.90 16.97 2.81 16.97L2.81 16.97ZM20.74 16.97L12.98 16.97Q12.89 16.97 12.89 16.85L12.89 16.85L12.91 0.36Q12.91 0.26 13.01 0.26L13.01 0.26L20.71 0.26Q20.81 0.26 20.81 0.38L20.81 0.38L20.81 3.07Q20.81 3.17 20.71 3.17L20.71 3.17L15.79 3.17L15.79 6.91L20.71 6.91Q20.81 6.91 20.81 7.01L20.81 7.01L20.83 9.72Q20.83 9.82 20.74 9.82L20.74 9.82L15.79 9.82L15.79 14.02L20.74 14.02Q20.83 14.02 20.83 14.14L20.83 14.14L20.83 16.87Q20.83 16.97 20.74 16.97L20.74 16.97ZM27.38 16.94L23.09 16.97Q22.97 16.97 22.97 16.85L22.97 16.85L23.02 0.36Q23.02 0.26 23.11 0.26L23.11 0.26L27.60 0.24Q28.92 0.22 30.01 0.86Q31.10 1.51 31.75 2.60Q32.40 3.70 32.40 5.02L32.40 5.02L32.40 11.90Q32.40 13.30 31.73 14.44Q31.06 15.58 29.93 16.25Q28.80 16.92 27.38 16.94L27.38 16.94ZM25.92 3.14L25.90 14.02L27.38 14.02Q28.27 14.02 28.88 13.39Q29.50 12.77 29.50 11.90L29.50 11.90L29.50 4.99Q29.50 4.22 28.93 3.66Q28.37 3.10 27.60 3.12L27.60 3.12L25.92 3.14ZM37.13 16.97L34.42 16.97Q34.30 16.97 34.30 16.85L34.30 16.85L34.32 0.36Q34.32 0.26 34.42 0.26L34.42 0.26L37.10 0.26Q37.20 0.26 37.20 0.36L37.20 0.36L37.22 16.85Q37.22 16.97 37.13 16.97L37.13 16.97ZM43.78 17.21L43.78 17.21Q42.48 17.21 41.41 16.55Q40.34 15.89 39.70 14.80Q39.05 13.70 39.05 12.38L39.05 12.38L39.07 4.78Q39.07 3.46 39.71 2.38Q40.34 1.30 41.42 0.65Q42.50 0 43.78 0L43.78 0Q45.07 0 46.13 0.65Q47.18 1.30 47.82 2.38Q48.46 3.46 48.46 4.78L48.46 4.78L48.48 12.38Q48.48 13.70 47.84 14.80Q47.21 15.89 46.14 16.55Q45.07 17.21 43.78 17.21ZM43.78 14.30L43.78 14.30Q44.50 14.30 45.04 13.72Q45.58 13.13 45.58 12.38L45.58 12.38L45.55 4.78Q45.55 3.98 45.05 3.43Q44.54 2.88 43.78 2.88L43.78 2.88Q43.03 2.88 42.50 3.42Q41.98 3.96 41.98 4.78L41.98 4.78L41.98 12.38Q41.98 13.18 42.50 13.74Q43.03 14.30 43.78 14.30ZM54.38 17.21L54.38 17.21Q53.09 17.21 52.02 16.55Q50.95 15.89 50.32 14.80Q49.68 13.70 49.68 12.38L49.68 12.38L49.68 11.28Q49.68 11.16 49.80 11.16L49.80 11.16L52.49 11.16Q52.58 11.16 52.58 11.28L52.58 11.28L52.58 12.38Q52.58 13.18 53.11 13.74Q53.64 14.30 54.38 14.30L54.38 14.30Q55.13 14.30 55.66 13.73Q56.18 13.15 56.18 12.38L56.18 12.38Q56.18 11.50 55.03 10.85L55.03 10.85Q54.65 10.63 53.83 10.18Q53.02 9.72 52.30 9.31L52.30 9.31Q50.98 8.54 50.34 7.38Q49.70 6.22 49.70 4.75L49.70 4.75Q49.70 3.41 50.35 2.34Q51.00 1.27 52.07 0.65Q53.14 0.02 54.38 0.02L54.38 0.02Q55.66 0.02 56.72 0.66Q57.79 1.30 58.43 2.36Q59.06 3.43 59.06 4.75L59.06 4.75L59.06 6.72Q59.06 6.82 58.97 6.82L58.97 6.82L56.28 6.82Q56.18 6.82 56.18 6.72L56.18 6.72L56.16 4.75Q56.16 3.91 55.63 3.38Q55.10 2.86 54.38 2.86L54.38 2.86Q53.64 2.86 53.11 3.42Q52.58 3.98 52.58 4.75L52.58 4.75Q52.58 5.54 52.92 6.07Q53.26 6.60 54.14 7.08L54.14 7.08Q54.26 7.15 54.61 7.33Q54.96 7.51 55.37 7.74Q55.78 7.97 56.10 8.14Q56.42 8.30 56.50 8.35L56.50 8.35Q57.70 9.02 58.39 10.00Q59.09 10.97 59.09 12.38L59.09 12.38Q59.09 13.75 58.45 14.84Q57.82 15.94 56.75 16.57Q55.68 17.21 54.38 17.21ZM67.13 16.97L64.42 16.97Q64.32 16.97 64.32 16.85L64.32 16.85L64.37 0.36Q64.37 0.26 64.46 0.26L64.46 0.26L69.31 0.26Q70.61 0.26 71.70 0.90Q72.79 1.54 73.44 2.60Q74.09 3.67 74.09 5.02L74.09 5.02Q74.09 5.90 73.82 6.61Q73.56 7.32 73.20 7.81Q72.84 8.30 72.55 8.54L72.55 8.54Q73.85 9.98 73.85 11.93L73.85 11.93L73.87 16.85Q73.87 16.97 73.75 16.97L73.75 16.97L71.04 16.97Q70.94 16.97 70.94 16.90L70.94 16.90L70.94 11.93Q70.94 11.06 70.33 10.43Q69.72 9.79 68.83 9.79L68.83 9.79L67.25 9.79L67.22 16.85Q67.22 16.97 67.13 16.97L67.13 16.97ZM67.25 3.14L67.25 6.91L69.31 6.91Q70.06 6.91 70.63 6.36Q71.21 5.81 71.21 5.02L71.21 5.02Q71.21 4.25 70.64 3.70Q70.08 3.14 69.31 3.14L69.31 3.14L67.25 3.14ZM83.74 16.97L75.98 16.97Q75.89 16.97 75.89 16.85L75.89 16.85L75.91 0.36Q75.91 0.26 76.01 0.26L76.01 0.26L83.71 0.26Q83.81 0.26 83.81 0.38L83.81 0.38L83.81 3.07Q83.81 3.17 83.71 3.17L83.71 3.17L78.79 3.17L78.79 6.91L83.71 6.91Q83.81 6.91 83.81 7.01L83.81 7.01L83.83 9.72Q83.83 9.82 83.74 9.82L83.74 9.82L78.79 9.82L78.79 14.02L83.74 14.02Q83.83 14.02 83.83 14.14L83.83 14.14L83.83 16.87Q83.83 16.97 83.74 16.97L83.74 16.97ZM89.98 17.21L89.98 17.21Q88.68 17.21 87.62 16.56Q86.57 15.91 85.93 14.82Q85.30 13.73 85.30 12.38L85.30 12.38L85.30 4.78Q85.30 3.48 85.93 2.39Q86.57 1.30 87.64 0.65Q88.70 0 89.98 0L89.98 0Q91.30 0 92.36 0.64Q93.43 1.27 94.06 2.35Q94.68 3.43 94.68 4.78L94.68 4.78L94.68 5.88Q94.68 5.98 94.56 5.98L94.56 5.98L91.87 5.98Q91.78 5.98 91.78 5.88L91.78 5.88L91.78 4.97Q91.78 4.06 91.26 3.46Q90.74 2.86 89.98 2.86L89.98 2.86Q89.28 2.86 88.74 3.43Q88.20 4.01 88.20 4.78L88.20 4.78L88.20 12.38Q88.20 13.18 88.73 13.74Q89.26 14.30 89.98 14.30L89.98 14.30Q90.74 14.30 91.26 13.75Q91.78 13.20 91.78 12.38L91.78 12.38L91.78 11.21L90.10 11.21Q89.98 11.21 89.98 11.09L89.98 11.09L89.98 8.40Q89.98 8.28 90.10 8.28L90.10 8.28L94.58 8.28Q94.68 8.28 94.68 8.40L94.68 8.40L94.68 12.38Q94.68 13.73 94.04 14.82Q93.41 15.91 92.35 16.56Q91.30 17.21 89.98 17.21ZM99.22 16.97L96.50 16.97Q96.38 16.97 96.38 16.85L96.38 16.85L96.41 0.36Q96.41 0.26 96.50 0.26L96.50 0.26L99.19 0.26Q99.29 0.26 99.29 0.36L99.29 0.36L99.31 16.85Q99.31 16.97 99.22 16.97L99.22 16.97ZM105.86 17.21L105.86 17.21Q104.57 17.21 103.50 16.55Q102.43 15.89 101.78 14.80Q101.14 13.70 101.14 12.38L101.14 12.38L101.16 4.78Q101.16 3.46 101.80 2.38Q102.43 1.30 103.51 0.65Q104.59 0 105.86 0L105.86 0Q107.16 0 108.22 0.65Q109.27 1.30 109.91 2.38Q110.54 3.46 110.54 4.78L110.54 4.78L110.57 12.38Q110.57 13.70 109.93 14.80Q109.30 15.89 108.23 16.55Q107.16 17.21 105.86 17.21ZM105.86 14.30L105.86 14.30Q106.58 14.30 107.12 13.72Q107.66 13.13 107.66 12.38L107.66 12.38L107.64 4.78Q107.64 3.98 107.14 3.43Q106.63 2.88 105.86 2.88L105.86 2.88Q105.12 2.88 104.59 3.42Q104.06 3.96 104.06 4.78L104.06 4.78L104.06 12.38Q104.06 13.18 104.59 13.74Q105.12 14.30 105.86 14.30ZM115.01 16.97L112.61 16.97Q112.42 16.97 112.42 16.80L112.42 16.80L112.39 0.46Q112.39 0.26 112.58 0.26L112.58 0.26L114.74 0.26L118.80 9.72L118.68 0.46Q118.68 0.26 118.90 0.26L118.90 0.26L121.27 0.26Q121.42 0.26 121.42 0.46L121.42 0.46L121.44 16.82Q121.44 16.97 121.32 16.97L121.32 16.97L119.21 16.97L115.06 8.14L115.22 16.78Q115.22 16.97 115.01 16.97L115.01 16.97Z" transform="translate(36, 9.516)"></path></svg>